<svg xmlns="http://www.w3.org/2000/svg" width="31.3" height="30.7" overflow="scroll"><style>.st0{fill:#fff}</style><path class="st0" d="M.5 8.9L15 16.6c.1.1.3.1.5.1s.3 0 .4-.1l14.8-7.4c.3-.2.6-.5.6-.9s-.3-.7-.6-.8L15.9.1c-.3-.1-.6-.1-.9 0L.5 7.1c-.3.2-.5.5-.5.9s.2.7.5.9zm15-6.8L28 8.4l-12.5 6.2L3.2 8l12.3-5.9z"/><path class="st0" d="M30.8 14.9l-3.3-2c-.5-.3-1.1-.1-1.4.3-.3.5-.1 1.1.3 1.4l1.7 1-12.7 5.8-12.3-5.8 1.7-1c.5-.3.6-.9.3-1.4s-.9-.6-1.4-.3l-3.3 2c-.2.2-.4.5-.4.9s.2.7.6.8L15 23.4c.1.1.3.1.4.1.1 0 .3 0 .4-.1l14.8-6.8c.3-.2.6-.5.6-.8.1-.4-.1-.7-.4-.9z"/><path class="st0" d="M30.8 22.1l-3.3-2c-.5-.3-1.1-.1-1.4.3-.3.5-.1 1.1.3 1.4l1.7 1-12.7 5.8-12.3-5.8 1.7-1c.5-.3.6-.9.3-1.4s-.9-.6-1.4-.3l-3.3 2c-.2.2-.4.5-.4.9s.2.7.6.8L15 30.6c.1.1.3.1.4.1.1 0 .3 0 .4-.1l14.8-6.8c.3-.2.6-.5.6-.8.1-.4-.1-.7-.4-.9z"/></svg>