<svg xmlns="http://www.w3.org/2000/svg" width="27.6" height="23.2" overflow="scroll"><path d="M27.3 6.5c-.4-1.1-1.1-1.8-1.9-2.1-1.1-.4-2.1 0-2.4.2l-1.2.5V1c0-.6-.4-1-1-1H5.1S5 0 4.9.1h-.1c-.1 0-.2.1-.3.2L.3 4.5c-.1.1-.2.2-.2.3v.1c-.1.1-.1.2-.1.3v17.1c0 .6.4 1 1 1h19.8c.6 0 1-.4 1-1V12.1l3.6-1.4c.3-.1 1.3-.5 1.9-1.5.2-.5.5-1.4 0-2.7zM4.2 3.4v.8h-.8l.8-.8zm15.6 17.8H2v-15h3.2c.6 0 1-.4 1-1V2h13.6v3.9l-2.2.9-7 2.8c-.2.1-.3.2-.4.3l-2.9 4c-.2.3-.2.7-.1 1 .2.3.5.5.8.6l4.5.3h.1c.1 0 .2 0 .3-.1l6.9-2.8v8.3zm5.7-12.9c-.2.4-.7.5-.7.5h-.1l-12.3 4.9-2.4-.1 1.6-2.3L19.9 8l1.2-.5 2.6-1.1s.1 0 .1-.1c0 0 .4-.2.8-.1.3.1.6.6.7.9.3.6.3.9.2 1.2z" fill="#fff"/></svg>