<svg xmlns="http://www.w3.org/2000/svg" width="45" height="45"><path d="M9.497 23.284L23.285 9.497l12.218 12.218-13.788 13.788L9.497 23.284zm32.424-7.986l-4.517 4.517L25.185 7.596l4.517-4.517a1.344 1.344 0 0 0-1.9-1.9l-4.517 4.516L17.983.394a1.344 1.344 0 1 0-1.9 1.9l5.3 5.302L7.597 21.384l-5.301-5.302a1.344 1.344 0 1 0-1.901 1.901l5.301 5.301-4.517 4.518a1.344 1.344 0 1 0 1.9 1.9l4.518-4.517 12.219 12.219-4.518 4.517a1.344 1.344 0 1 0 1.901 1.901l4.517-4.517 5.302 5.301a1.344 1.344 0 0 0 1.901-1.9l-5.302-5.302 13.788-13.788 5.302 5.302a1.343 1.343 0 1 0 1.9-1.9l-5.301-5.303 4.517-4.517a1.344 1.344 0 0 0-1.901-1.9" fill="#73ef32"/></svg>